<svg xmlns="http://www.w3.org/2000/svg" width="760" height="380" viewBox="0 0 760 380" role="img" aria-label="Mascot for steamtrain: a little steam locomotive whose boiler carries a brass steam gate-valve with a spoked handwheel. Steam puffs from the smokestack and hisses from the valve while the driving wheels turn — a visual pun on 'Steam' launch options.">
  <title>steamtrain — a steam valve riding a steam train, with steam coming out</title>
  <defs>
    <linearGradient id="sky" x1="0" y1="0" x2="0" y2="1">
      <stop offset="0%" stop-color="#1b2838"/>
      <stop offset="100%" stop-color="#0b1017"/>
    </linearGradient>
    <linearGradient id="boiler" x1="0" y1="0" x2="0" y2="1">
      <stop offset="0%" stop-color="#3f6187"/>
      <stop offset="45%" stop-color="#25405c"/>
      <stop offset="100%" stop-color="#14212f"/>
    </linearGradient>
    <linearGradient id="cab" x1="0" y1="0" x2="0" y2="1">
      <stop offset="0%" stop-color="#2a475e"/>
      <stop offset="100%" stop-color="#16242f"/>
    </linearGradient>
    <radialGradient id="brass" cx="38%" cy="32%" r="75%">
      <stop offset="0%" stop-color="#ffe6a6"/>
      <stop offset="45%" stop-color="#d4a24e"/>
      <stop offset="100%" stop-color="#8a5e1f"/>
    </radialGradient>
    <radialGradient id="wheel" cx="42%" cy="38%" r="70%">
      <stop offset="0%" stop-color="#31506b"/>
      <stop offset="100%" stop-color="#0e1a25"/>
    </radialGradient>
    <radialGradient id="lamp" cx="50%" cy="50%" r="50%">
      <stop offset="0%" stop-color="#fff6d8"/>
      <stop offset="60%" stop-color="#ffd75e"/>
      <stop offset="100%" stop-color="#ffd75e" stop-opacity="0"/>
    </radialGradient>
    <radialGradient id="puff" cx="50%" cy="50%" r="50%">
      <stop offset="0%" stop-color="#ffffff" stop-opacity="0.95"/>
      <stop offset="70%" stop-color="#cfe4f2" stop-opacity="0.55"/>
      <stop offset="100%" stop-color="#cfe4f2" stop-opacity="0"/>
    </radialGradient>
  </defs>

  <style>
    .mono { font-family: ui-monospace, SFMono-Regular, Menlo, Consolas, "Liberation Mono", monospace; }

    /* driving wheels spin; spokes are grouped and rotated about each wheel centre */
    .spin { animation: spin 2.4s linear infinite; transform-origin: center; transform-box: fill-box; }
    @keyframes spin { to { transform: rotate(360deg); } }

    /* the piston rod reciprocates a touch, selling the motion */
    .rod { animation: rod 2.4s linear infinite; }
    @keyframes rod { 0%,100% { transform: translateX(-6px);} 50% { transform: translateX(6px);} }

    /* whole engine gives a gentle rail bob */
    .engine { animation: bob 2.4s ease-in-out infinite; }
    @keyframes bob { 0%,100% { transform: translateY(0);} 50% { transform: translateY(-2px);} }

    /* stack steam: rise, grow, drift back, fade — staggered for a rolling plume */
    .puff { transform-origin: center; transform-box: fill-box; animation: puff 3.6s ease-out infinite; }
    .p2 { animation-delay: .72s; } .p3 { animation-delay: 1.44s; }
    .p4 { animation-delay: 2.16s; } .p5 { animation-delay: 2.88s; }
    @keyframes puff {
      0%   { opacity: 0; transform: translate(0,0) scale(.35); }
      15%  { opacity: .95; }
      100% { opacity: 0; transform: translate(46px,-116px) scale(1.9); }
    }

    /* valve hiss: quick little jets escaping the packing, left and right */
    .hiss { transform-origin: center; transform-box: fill-box; animation: hissL 1.5s ease-out infinite; }
    .hissR { animation-name: hissR; animation-delay: .5s; }
    .h2 { animation-delay: .75s; }
    @keyframes hissL { 0% { opacity: 0; transform: translate(0,0) scale(.3);} 25% { opacity:.8;} 100% { opacity:0; transform: translate(-34px,-14px) scale(1.3);} }
    @keyframes hissR { 0% { opacity: 0; transform: translate(0,0) scale(.3);} 25% { opacity:.8;} 100% { opacity:0; transform: translate(34px,-14px) scale(1.3);} }

    @media (prefers-reduced-motion: reduce) {
      .spin, .rod, .engine, .puff, .hiss { animation: none; }
      .puff { opacity: .5; }
    }
  </style>

  <!-- card -->
  <rect x="0" y="0" width="760" height="380" rx="22" fill="url(#sky)"/>

  <!-- rails -->
  <g stroke="#2c3f52" stroke-width="4">
    <line x1="24" y1="322" x2="736" y2="322"/>
    <line x1="24" y1="336" x2="736" y2="336"/>
  </g>
  <g fill="#22323f">
    <rect x="70" y="320" width="14" height="20" rx="2"/>
    <rect x="170" y="320" width="14" height="20" rx="2"/>
    <rect x="270" y="320" width="14" height="20" rx="2"/>
    <rect x="370" y="320" width="14" height="20" rx="2"/>
    <rect x="470" y="320" width="14" height="20" rx="2"/>
    <rect x="570" y="320" width="14" height="20" rx="2"/>
    <rect x="670" y="320" width="14" height="20" rx="2"/>
  </g>

  <!-- steam from the smokestack (drawn behind the engine) -->
  <g fill="url(#puff)">
    <circle class="puff"    cx="238" cy="112" r="20"/>
    <circle class="puff p2" cx="238" cy="112" r="24"/>
    <circle class="puff p3" cx="238" cy="112" r="18"/>
    <circle class="puff p4" cx="238" cy="112" r="26"/>
    <circle class="puff p5" cx="238" cy="112" r="21"/>
  </g>

  <g class="engine">
    <!-- footplate -->
    <rect x="150" y="250" width="440" height="20" rx="4" fill="#101b26"/>

    <!-- cowcatcher -->
    <path d="M150 252 L150 300 L120 300 L150 252 Z" fill="#243a4c"/>
    <g stroke="#0e1a25" stroke-width="3">
      <line x1="147" y1="262" x2="126" y2="298"/>
      <line x1="150" y1="274" x2="134" y2="298"/>
      <line x1="150" y1="286" x2="142" y2="298"/>
    </g>

    <!-- boiler -->
    <rect x="165" y="158" width="300" height="94" rx="47" fill="url(#boiler)"/>
    <!-- boiler bands -->
    <g stroke="#0f1c28" stroke-width="3" opacity="0.6">
      <line x1="300" y1="160" x2="300" y2="250"/>
      <line x1="360" y1="160" x2="360" y2="250"/>
    </g>

    <!-- smokebox front + headlamp -->
    <circle cx="185" cy="205" r="47" fill="#1a2c3c"/>
    <circle cx="185" cy="205" r="47" fill="none" stroke="#2f4b63" stroke-width="4"/>
    <circle cx="176" cy="188" r="10" fill="url(#lamp)"/>
    <circle cx="176" cy="188" r="5"  fill="#fff6d8"/>

    <!-- smokestack -->
    <path d="M218 158 L212 120 L264 120 L258 158 Z" fill="#1c2f40"/>
    <rect x="206" y="108" width="66" height="16" rx="5" fill="#243a4c"/>

    <!-- steam dome -->
    <path d="M300 158 a34 34 0 0 1 68 0 Z" fill="#243a4c"/>
    <rect x="298" y="152" width="72" height="10" rx="4" fill="#2f4b63"/>

    <!-- cab -->
    <path d="M452 252 L452 132 Q452 122 462 122 L560 122 Q570 122 570 132 L570 252 Z" fill="url(#cab)"/>
    <rect x="470" y="140" width="70" height="52" rx="6" fill="#0c161e"/>
    <rect x="470" y="140" width="70" height="52" rx="6" fill="none" stroke="#33556e" stroke-width="3"/>
    <line x1="505" y1="140" x2="505" y2="192" stroke="#33556e" stroke-width="3"/>
    <!-- roof -->
    <rect x="446" y="112" width="130" height="14" rx="6" fill="#2f4b63"/>

    <!-- nameplate -->
    <rect x="348" y="210" width="104" height="26" rx="6" fill="#0f1c28" stroke="#d4a24e" stroke-width="2"/>
    <text class="mono" x="400" y="228" text-anchor="middle" font-size="12" font-weight="700" fill="#e9c579" letter-spacing="1.5">steamtrain</text>

    <!-- ===== the steam valve (the pun): brass gate valve + handwheel on the boiler ===== -->
    <g>
      <!-- valve steam hissing from the packing (behind the wheel) -->
      <g fill="url(#puff)">
        <circle class="hiss"        cx="410" cy="140" r="12"/>
        <circle class="hiss hissR"  cx="410" cy="140" r="12"/>
        <circle class="hiss h2"     cx="410" cy="140" r="9"/>
      </g>
      <!-- bonnet / valve body seated on the boiler -->
      <rect x="396" y="140" width="28" height="26" rx="4" fill="url(#brass)"/>
      <rect x="390" y="160" width="40" height="10" rx="3" fill="#a9781f"/>
      <!-- stem -->
      <rect x="407" y="112" width="6" height="32" rx="3" fill="#c9973f"/>
      <!-- spoked handwheel -->
      <g class="spin">
        <circle cx="410" cy="108" r="24" fill="none" stroke="url(#brass)" stroke-width="7"/>
        <circle cx="410" cy="108" r="6"  fill="url(#brass)"/>
        <g stroke="url(#brass)" stroke-width="5" stroke-linecap="round">
          <line x1="410" y1="108" x2="410" y2="86"/>
          <line x1="410" y1="108" x2="429" y2="119"/>
          <line x1="410" y1="108" x2="391" y2="119"/>
        </g>
      </g>
    </g>

    <!-- ===== running gear ===== -->
    <!-- leading wheel -->
    <g>
      <circle cx="228" cy="286" r="22" fill="url(#wheel)" stroke="#0c161e" stroke-width="4"/>
      <g class="spin">
        <circle cx="228" cy="286" r="6" fill="#3a5a78"/>
        <g stroke="#3a5a78" stroke-width="3">
          <line x1="228" y1="286" x2="228" y2="266"/>
          <line x1="228" y1="286" x2="245" y2="296"/>
          <line x1="228" y1="286" x2="211" y2="296"/>
        </g>
      </g>
    </g>
    <!-- driving wheels -->
    <g>
      <circle cx="330" cy="282" r="40" fill="url(#wheel)" stroke="#0c161e" stroke-width="5"/>
      <g class="spin">
        <circle cx="330" cy="282" r="9" fill="#3a5a78"/>
        <g stroke="#3a5a78" stroke-width="4">
          <line x1="330" y1="282" x2="330" y2="246"/>
          <line x1="330" y1="282" x2="330" y2="318"/>
          <line x1="330" y1="282" x2="361" y2="264"/>
          <line x1="330" y1="282" x2="299" y2="300"/>
          <line x1="330" y1="282" x2="361" y2="300"/>
          <line x1="330" y1="282" x2="299" y2="264"/>
        </g>
      </g>
    </g>
    <g>
      <circle cx="446" cy="282" r="40" fill="url(#wheel)" stroke="#0c161e" stroke-width="5"/>
      <g class="spin">
        <circle cx="446" cy="282" r="9" fill="#3a5a78"/>
        <g stroke="#3a5a78" stroke-width="4">
          <line x1="446" y1="282" x2="446" y2="246"/>
          <line x1="446" y1="282" x2="446" y2="318"/>
          <line x1="446" y1="282" x2="477" y2="264"/>
          <line x1="446" y1="282" x2="415" y2="300"/>
          <line x1="446" y1="282" x2="477" y2="300"/>
          <line x1="446" y1="282" x2="415" y2="264"/>
        </g>
      </g>
    </g>
    <!-- coupling / piston rod -->
    <g class="rod">
      <line x1="330" y1="282" x2="446" y2="282" stroke="#c9973f" stroke-width="6" stroke-linecap="round"/>
      <circle cx="330" cy="282" r="5" fill="#e9c579"/>
      <circle cx="446" cy="282" r="5" fill="#e9c579"/>
    </g>
  </g>
</svg>
